<svg width="130" height="28" viewBox="0 0 130 28" fill="none" xmlns="http://www.w3.org/2000/svg">
<path d="M12.198 9.85177L0 12.2914V15.5441L12.198 17.5771L21.1431 15.7474V12.0881L12.198 9.85177Z" fill="#34AD91"/>
<path d="M24.8025 20.8299V17.5771L12.198 20.4233L3.65939 18.187V22.4563L12.198 27.1322L24.8025 20.8299Z" fill="#34AD91"/>
<path d="M3.65939 9.44517V4.97258L12.198 0.5L24.8025 6.59898L24.5992 9.85177L12.198 7.20888L3.65939 9.44517Z" fill="#019875"/>
<path d="M12.198 7.20888V0.5L24.8025 6.59898V9.90048L12.198 7.20888Z" fill="#34AD91"/>
<path d="M12.198 17.5771V9.85177L21.1431 11.8848V15.9508L12.198 17.5771Z" fill="#019875"/>
<path d="M12.198 27.1322V20.4233L3.65939 17.9837V22.4563L12.198 27.1322Z" fill="#019875"/>
<path d="M40.3345 23.7928C39.0659 23.7928 37.9356 23.4919 36.9435 22.8901C35.9514 22.2883 35.1707 21.467 34.6015 20.4261C34.0322 19.369 33.7476 18.1898 33.7476 16.8887C33.7476 15.5713 34.0241 14.4003 34.5771 13.3757C35.1463 12.3511 35.9107 11.546 36.8703 10.9605C37.8461 10.3587 38.9358 10.0578 40.1394 10.0578C41.1152 10.0578 41.9772 10.2368 42.7253 10.5946C43.4897 10.9361 44.1322 11.4078 44.6526 12.0095C45.1893 12.595 45.5959 13.27 45.8724 14.0344C46.1652 14.7825 46.3115 15.5632 46.3115 16.3764C46.3115 16.5553 46.2953 16.7586 46.2627 16.9863C46.2465 17.1977 46.2221 17.401 46.1895 17.5962H35.4066V15.6445H44.8722L43.7987 16.5228C43.9451 15.677 43.8638 14.9208 43.5548 14.2539C43.2458 13.5871 42.7904 13.0585 42.1886 12.6682C41.5869 12.2779 40.9038 12.0827 40.1394 12.0827C39.375 12.0827 38.6756 12.2779 38.0413 12.6682C37.407 13.0585 36.911 13.6197 36.5532 14.3515C36.2116 15.0671 36.0734 15.921 36.1384 16.9131C36.0734 17.8727 36.2197 18.7184 36.5776 19.4503C36.9516 20.1659 37.4721 20.727 38.1389 21.1336C38.822 21.5239 39.562 21.7191 40.3589 21.7191C41.2372 21.7191 41.9772 21.5158 42.579 21.1092C43.1807 20.7026 43.6686 20.1822 44.0427 19.5479L45.9456 20.5237C45.6854 21.1255 45.2788 21.6784 44.7258 22.1826C44.1891 22.6705 43.5467 23.0609 42.7985 23.3536C42.0666 23.6464 41.2453 23.7928 40.3345 23.7928ZM49.2697 23.5V10.3506H51.4898V13.0341L51.1726 12.6194C51.4979 11.79 52.0183 11.1557 52.7339 10.7165C53.4496 10.2774 54.2546 10.0578 55.1491 10.0578C56.1738 10.0578 57.0927 10.3425 57.9059 10.9117C58.7353 11.4809 59.3046 12.2291 59.6136 13.1561L58.9793 13.1805C59.3208 12.1559 59.8982 11.3834 60.7114 10.8629C61.5246 10.3262 62.4273 10.0578 63.4194 10.0578C64.3301 10.0578 65.1515 10.2693 65.8833 10.6921C66.6315 11.115 67.2251 11.7005 67.6642 12.4486C68.1034 13.1968 68.3229 14.0425 68.3229 14.9858V23.5H66.0297V15.7177C66.0297 14.9858 65.8996 14.3678 65.6394 13.8636C65.3792 13.3594 65.0214 12.9691 64.566 12.6926C64.1268 12.3999 63.6064 12.2535 63.0046 12.2535C62.4191 12.2535 61.8905 12.3999 61.4189 12.6926C60.9635 12.9691 60.5976 13.3676 60.3211 13.888C60.0609 14.3922 59.9307 15.0021 59.9307 15.7177V23.5H57.6375V15.7177C57.6375 14.9858 57.5074 14.3678 57.2472 13.8636C56.987 13.3594 56.6292 12.9691 56.1738 12.6926C55.7346 12.3999 55.2142 12.2535 54.6124 12.2535C54.0269 12.2535 53.4983 12.3999 53.0267 12.6926C52.5713 12.9691 52.2054 13.3676 51.9289 13.888C51.6687 14.3922 51.5385 15.0021 51.5385 15.7177V23.5H49.2697ZM77.5955 23.7928C76.3269 23.7928 75.1966 23.4919 74.2044 22.8901C73.2123 22.2883 72.4317 21.467 71.8624 20.4261C71.2932 19.369 71.0086 18.1898 71.0086 16.8887C71.0086 15.5713 71.2851 14.4003 71.838 13.3757C72.4073 12.3511 73.1717 11.546 74.1313 10.9605C75.1071 10.3587 76.1968 10.0578 77.4003 10.0578C78.3762 10.0578 79.2381 10.2368 79.9863 10.5946C80.7507 10.9361 81.3931 11.4078 81.9136 12.0095C82.4503 12.595 82.8569 13.27 83.1334 14.0344C83.4261 14.7825 83.5725 15.5632 83.5725 16.3764C83.5725 16.5553 83.5562 16.7586 83.5237 16.9863C83.5074 17.1977 83.483 17.401 83.4505 17.5962H72.6675V15.6445H82.1331L81.0597 16.5228C81.2061 15.677 81.1248 14.9208 80.8157 14.2539C80.5067 13.5871 80.0513 13.0585 79.4496 12.6682C78.8478 12.2779 78.1647 12.0827 77.4003 12.0827C76.6359 12.0827 75.9366 12.2779 75.3023 12.6682C74.668 13.0585 74.1719 13.6197 73.8141 14.3515C73.4726 15.0671 73.3343 15.921 73.3994 16.9131C73.3343 17.8727 73.4807 18.7184 73.8385 19.4503C74.2126 20.1659 74.733 20.727 75.3998 21.1336C76.0829 21.5239 76.8229 21.7191 77.6199 21.7191C78.4981 21.7191 79.2381 21.5158 79.8399 21.1092C80.4417 20.7026 80.9296 20.1822 81.3037 19.5479L83.2065 20.5237C82.9463 21.1255 82.5397 21.6784 81.9867 22.1826C81.45 22.6705 80.8076 23.0609 80.0595 23.3536C79.3276 23.6464 78.5063 23.7928 77.5955 23.7928ZM86.5307 23.5V10.3506H88.7507V12.7658L88.5067 12.4243C88.8158 11.6761 89.2874 11.1231 89.9217 10.7653C90.556 10.3913 91.3285 10.2042 92.2393 10.2042H93.0444V12.3511H91.8978C90.9707 12.3511 90.2226 12.6438 89.6534 13.2293C89.0841 13.7986 88.7995 14.6118 88.7995 15.6689V23.5H86.5307ZM98.9143 23.7928C98.0523 23.7928 97.2879 23.6382 96.6211 23.3292C95.9705 23.0039 95.4582 22.5648 95.0841 22.0118C94.71 21.4426 94.523 20.7921 94.523 20.0602C94.523 19.3608 94.6694 18.7347 94.9621 18.1817C95.2712 17.6125 95.7428 17.1327 96.3771 16.7423C97.0277 16.352 97.8409 16.0755 98.8167 15.9129L103.696 15.1078V17.0107L99.329 17.7426C98.4833 17.8889 97.8653 18.1573 97.4749 18.5476C97.1008 18.938 96.9138 19.4177 96.9138 19.987C96.9138 20.5237 97.1252 20.971 97.5481 21.3288C97.9872 21.6866 98.5321 21.8655 99.1826 21.8655C100.012 21.8655 100.728 21.6947 101.329 21.3532C101.948 20.9954 102.427 20.5156 102.769 19.9138C103.127 19.312 103.306 18.6452 103.306 17.9133V14.5711C103.306 13.8555 103.037 13.2781 102.5 12.839C101.98 12.3836 101.289 12.1559 100.427 12.1559C99.6787 12.1559 99.0119 12.3511 98.4264 12.7414C97.8571 13.1155 97.4343 13.6197 97.1578 14.2539L95.1817 13.2293C95.4257 12.6276 95.816 12.0908 96.3527 11.6192C96.8894 11.1313 97.5156 10.7491 98.2312 10.4726C98.9468 10.1961 99.6949 10.0578 100.476 10.0578C101.484 10.0578 102.37 10.253 103.135 10.6434C103.899 11.0174 104.493 11.546 104.916 12.2291C105.355 12.8959 105.574 13.6766 105.574 14.5711V23.5H103.354V21.0116L103.769 21.158C103.493 21.6784 103.119 22.1338 102.647 22.5242C102.175 22.9145 101.622 23.2235 100.988 23.4512C100.354 23.6789 99.6624 23.7928 98.9143 23.7928ZM109.092 23.5V5.03229H111.361V23.5H109.092ZM120.858 23.7928C119.622 23.7928 118.508 23.4919 117.516 22.8901C116.54 22.2883 115.768 21.467 115.199 20.4261C114.629 19.3852 114.345 18.2223 114.345 16.9375C114.345 15.6201 114.629 14.4491 115.199 13.4245C115.768 12.3836 116.54 11.5623 117.516 10.9605C118.508 10.3587 119.622 10.0578 120.858 10.0578C121.948 10.0578 122.916 10.2937 123.762 10.7653C124.607 11.2207 125.274 11.8387 125.762 12.6194L125.396 13.1805V5.03229H127.689V23.5H125.469V20.6945L125.762 21.0848C125.307 21.9468 124.64 22.6136 123.762 23.0853C122.9 23.5569 121.932 23.7928 120.858 23.7928ZM121.054 21.5971C121.883 21.5971 122.623 21.3938 123.274 20.9872C123.924 20.5806 124.436 20.0276 124.811 19.3283C125.201 18.6127 125.396 17.8158 125.396 16.9375C125.396 16.043 125.201 15.246 124.811 14.5467C124.436 13.8311 123.924 13.27 123.274 12.8634C122.623 12.4568 121.883 12.2535 121.054 12.2535C120.24 12.2535 119.5 12.4649 118.834 12.8878C118.183 13.2944 117.671 13.8473 117.297 14.5467C116.923 15.2298 116.735 16.0267 116.735 16.9375C116.735 17.8158 116.923 18.6127 117.297 19.3283C117.671 20.0276 118.183 20.5806 118.834 20.9872C119.484 21.3938 120.224 21.5971 121.054 21.5971Z" fill="#242424"/>
</svg>
