<svg width="155" height="32" viewBox="0 0 155 32" fill="none" xmlns="http://www.w3.org/2000/svg">
<path d="M14.5448 11.151L0 14.06V17.9386L14.5448 20.3627L25.211 18.181V13.8175L14.5448 11.151Z" fill="#34AD91"/>
<path d="M29.5744 24.2413V20.3627L14.5448 23.7565L4.36344 21.0899V26.1806L14.5448 31.7561L29.5744 24.2413Z" fill="#34AD91"/>
<path d="M4.36344 10.6662V5.33309L14.5448 0L29.5744 7.27239L29.332 11.151L14.5448 7.99963L4.36344 10.6662Z" fill="#019875"/>
<path d="M14.5448 7.99963V0L29.5744 7.27239V11.2091L14.5448 7.99963Z" fill="#34AD91"/>
<path d="M14.5448 20.3627V11.151L25.211 13.5752V18.4235L14.5448 20.3627Z" fill="#019875"/>
<path d="M14.5448 31.7561V23.7565L4.36344 20.8475V26.1806L14.5448 31.7561Z" fill="#019875"/>
<path d="M48.0948 28.3491C46.5821 28.3491 45.2343 27.9903 44.0513 27.2728C42.8684 26.5552 41.9375 25.5759 41.2587 24.3347C40.58 23.0742 40.2406 21.6682 40.2406 20.1167C40.2406 18.5459 40.5703 17.1496 41.2297 15.9278C41.9084 14.7061 42.8199 13.7461 43.9641 13.048C45.1277 12.3304 46.427 11.9716 47.8621 11.9716C49.0257 11.9716 50.0535 12.185 50.9456 12.6116C51.8571 13.0189 52.6231 13.5813 53.2437 14.2988C53.8836 14.997 54.3685 15.8018 54.6981 16.7132C55.0472 17.6053 55.2217 18.5362 55.2217 19.5058C55.2217 19.7192 55.2024 19.9616 55.1636 20.2331C55.1442 20.4852 55.1151 20.7276 55.0763 20.9603H42.2187V18.6332H53.5055L52.2255 19.6804C52.4001 18.6719 52.3031 17.7702 51.9346 16.9751C51.5662 16.1799 51.0231 15.5497 50.3056 15.0842C49.5881 14.6188 48.7736 14.3861 47.8621 14.3861C46.9506 14.3861 46.1167 14.6188 45.3604 15.0842C44.604 15.5497 44.0126 16.2187 43.5859 17.0914C43.1787 17.9447 43.0138 18.9628 43.0914 20.1458C43.0138 21.29 43.1884 22.2984 43.615 23.1711C44.061 24.0244 44.6816 24.6935 45.4767 25.1783C46.2912 25.6437 47.1736 25.8765 48.1239 25.8765C49.1711 25.8765 50.0535 25.634 50.771 25.1492C51.4886 24.6644 52.0704 24.0438 52.5164 23.2875L54.7854 24.4511C54.4751 25.1686 53.9903 25.828 53.3309 26.4292C52.691 27.011 51.9249 27.4764 51.0328 27.8255C50.1602 28.1745 49.1808 28.3491 48.0948 28.3491ZM58.7491 28V12.3207H61.3962V15.5206L61.0181 15.026C61.4059 14.037 62.0265 13.2807 62.8798 12.7571C63.7331 12.2334 64.6931 11.9716 65.7597 11.9716C66.9814 11.9716 68.0771 12.311 69.0468 12.9898C70.0358 13.6685 70.7146 14.5606 71.0831 15.666L70.3267 15.6951C70.734 14.4733 71.4224 13.5522 72.3921 12.9316C73.3617 12.2916 74.4381 11.9716 75.621 11.9716C76.707 11.9716 77.6864 12.2238 78.5591 12.728C79.4512 13.2322 80.159 13.9303 80.6826 14.8224C81.2062 15.7145 81.468 16.7229 81.468 17.8477V28H78.7336V18.7204C78.7336 17.8477 78.5785 17.1108 78.2682 16.5096C77.9579 15.9084 77.5313 15.443 76.9882 15.1133C76.4646 14.7642 75.8441 14.5897 75.1265 14.5897C74.4284 14.5897 73.7981 14.7642 73.2357 15.1133C72.6927 15.443 72.2563 15.9181 71.9267 16.5387C71.6164 17.1399 71.4612 17.8671 71.4612 18.7204V28H68.7268V18.7204C68.7268 17.8477 68.5717 17.1108 68.2614 16.5096C67.9511 15.9084 67.5244 15.443 66.9814 15.1133C66.4578 14.7642 65.8372 14.5897 65.1197 14.5897C64.4216 14.5897 63.7913 14.7642 63.2289 15.1133C62.6859 15.443 62.2495 15.9181 61.9198 16.5387C61.6096 17.1399 61.4544 17.8671 61.4544 18.7204V28H58.7491ZM92.5246 28.3491C91.0119 28.3491 89.6641 27.9903 88.4811 27.2728C87.2982 26.5552 86.3673 25.5759 85.6885 24.3347C85.0098 23.0742 84.6704 21.6682 84.6704 20.1167C84.6704 18.5459 85.0001 17.1496 85.6594 15.9278C86.3382 14.7061 87.2497 13.7461 88.3939 13.048C89.5574 12.3304 90.8568 11.9716 92.2919 11.9716C93.4554 11.9716 94.4833 12.185 95.3754 12.6116C96.2868 13.0189 97.0529 13.5813 97.6734 14.2988C98.3134 14.997 98.7982 15.8018 99.1279 16.7132C99.477 17.6053 99.6515 18.5362 99.6515 19.5058C99.6515 19.7192 99.6321 19.9616 99.5933 20.2331C99.574 20.4852 99.5449 20.7276 99.5061 20.9603H86.6485V18.6332H97.9352L96.6553 19.6804C96.8298 18.6719 96.7329 17.7702 96.3644 16.9751C95.9959 16.1799 95.4529 15.5497 94.7354 15.0842C94.0178 14.6188 93.2033 14.3861 92.2919 14.3861C91.3804 14.3861 90.5465 14.6188 89.7902 15.0842C89.0338 15.5497 88.4423 16.2187 88.0157 17.0914C87.6084 17.9447 87.4436 18.9628 87.5212 20.1458C87.4436 21.29 87.6181 22.2984 88.0448 23.1711C88.4908 24.0244 89.1114 24.6935 89.9065 25.1783C90.721 25.6437 91.6034 25.8765 92.5537 25.8765C93.6009 25.8765 94.4833 25.634 95.2008 25.1492C95.9184 24.6644 96.5002 24.0438 96.9462 23.2875L99.2152 24.4511C98.9049 25.1686 98.4201 25.828 97.7607 26.4292C97.1207 27.011 96.3547 27.4764 95.4626 27.8255C94.5899 28.1745 93.6106 28.3491 92.5246 28.3491ZM103.179 28V12.3207H105.826V15.2006L105.535 14.7933C105.904 13.9013 106.466 13.2419 107.222 12.8152C107.979 12.3692 108.9 12.1462 109.986 12.1462H110.946V14.7061H109.579C108.473 14.7061 107.581 15.0551 106.902 15.7533C106.224 16.432 105.884 17.4017 105.884 18.6622V28H103.179ZM117.945 28.3491C116.917 28.3491 116.006 28.1648 115.211 27.7964C114.435 27.4085 113.824 26.8849 113.378 26.2255C112.932 25.5468 112.709 24.7711 112.709 23.8984C112.709 23.0645 112.883 22.3178 113.232 21.6585C113.601 20.9797 114.163 20.4076 114.92 19.9422C115.695 19.4768 116.665 19.1471 117.829 18.9531L123.647 17.9932V20.2622L118.44 21.1349C117.431 21.3094 116.694 21.6294 116.229 22.0948C115.783 22.5602 115.56 23.1323 115.56 23.8111C115.56 24.4511 115.812 24.9844 116.316 25.411C116.84 25.8377 117.489 26.051 118.265 26.051C119.254 26.051 120.107 25.8474 120.825 25.4401C121.562 25.0135 122.134 24.4414 122.541 23.7238C122.968 23.0063 123.181 22.2112 123.181 21.3385V17.3532C123.181 16.4999 122.861 15.8115 122.221 15.2879C121.601 14.7448 120.776 14.4733 119.749 14.4733C118.856 14.4733 118.061 14.7061 117.363 15.1715C116.684 15.6175 116.18 16.2187 115.851 16.9751L113.494 15.7533C113.785 15.0357 114.251 14.3958 114.891 13.8334C115.531 13.2516 116.277 12.7958 117.13 12.4662C117.984 12.1365 118.876 11.9716 119.807 11.9716C121.009 11.9716 122.066 12.2044 122.978 12.6698C123.889 13.1158 124.597 13.7461 125.101 14.5606C125.625 15.3557 125.886 16.2866 125.886 17.3532V28H123.239V25.0329L123.734 25.2074C123.404 25.828 122.958 26.371 122.396 26.8364C121.833 27.3019 121.174 27.6703 120.418 27.9418C119.661 28.2133 118.837 28.3491 117.945 28.3491ZM130.081 28V5.97919H132.786V28H130.081ZM144.111 28.3491C142.637 28.3491 141.309 27.9903 140.126 27.2728C138.962 26.5552 138.041 25.5759 137.362 24.3347C136.684 23.0936 136.344 21.707 136.344 20.1749C136.344 18.6041 136.684 17.2078 137.362 15.986C138.041 14.7448 138.962 13.7655 140.126 13.048C141.309 12.3304 142.637 11.9716 144.111 11.9716C145.41 11.9716 146.564 12.2528 147.573 12.8152C148.581 13.3582 149.376 14.0952 149.958 15.026L149.522 15.6951V5.97919H152.256V28H149.609V24.6547L149.958 25.1201C149.415 26.148 148.62 26.9431 147.573 27.5055C146.545 28.0679 145.391 28.3491 144.111 28.3491ZM144.344 25.731C145.333 25.731 146.215 25.4886 146.991 25.0038C147.767 24.5189 148.378 23.8596 148.824 23.0257C149.289 22.1724 149.522 21.2221 149.522 20.1749C149.522 19.1083 149.289 18.158 148.824 17.3241C148.378 16.4708 147.767 15.8018 146.991 15.3169C146.215 14.8321 145.333 14.5897 144.344 14.5897C143.374 14.5897 142.492 14.8418 141.697 15.346C140.921 15.8309 140.31 16.4902 139.864 17.3241C139.418 18.1386 139.195 19.0889 139.195 20.1749C139.195 21.2221 139.418 22.1724 139.864 23.0257C140.31 23.8596 140.921 24.5189 141.697 25.0038C142.472 25.4886 143.355 25.731 144.344 25.731Z" fill="#242424"/>
</svg>
